.
..............................Site Info...........................

 -   http://www.scenetime.com  *_*    

Scenetime .Always on time . friendly online private torrent community ..

     We care to share . Join us on  http://www.scenetime.com 

    Be the first to get new release at  http://www.scenetime.com

        Seed back for speed


...................................NFO:.................................................Complete name                    : The Revenant 2012 DVDrip ac3 DiVERSiTY
Format                           : AVI
Format/Info                      : Audio Video Interleave
File size                        : 1.80 GiB
Duration                         : 1h 57mn
Overall bit rate                 : 2 189 Kbps
Source                           : DVD9
 
http://www.imdb.com/title/tt1336006/


Video

Format                           : MPEG-4 Visual
Format profile                   : Advanced Simple@L5
Format settings, BVOP            : Yes
Format settings, QPel            : No
Format settings, GMC             : No warppoints
Format settings, Matrix          : Default (H.263)
Codec ID                         : XVID
Codec ID/Hint                    : XviD
Duration                         : 1h 57mn
Bit rate                         : 1 733 Kbps
Width                            : 720 pixels
Height                           : 304 pixels
Display aspect ratio             : 2.35:1
Frame rate                       : 23.976 fps
Color space                      : YUV
Chroma subsampling               : 4:2:0
Bit depth                        : 8 bits
Scan type                        : Progressive
Compression mode                 : Lossy
Bits/(Pixel*Frame)               : 0.330
Stream size                      : 1.42 GiB (79%)
Writing library                  : XviD 1.2.1 (UTC 2008-12-04)




Audio

Format                           : AC-3
Format/Info                      : Audio Coding 3
Mode extension                   : CM (complete main)
Codec ID                         : 2000
Duration                         : 1h 57mn
Bit rate mode                    : Constant
Bit rate                         : 448 Kbps
Channel(s)                       : 6 channels
Channel positions                : Front: L C R, Side: L R, LFE
Sampling rate                    : 48.0 KHz
Bit depth                        : 16 bits
Compression mode                 : Lossy
Stream size                      : 377 MiB (20%)
Alignment                        : Aligned on interleaves
Interleave, duration             : 64 ms (1.53 video frames)
Interleave, preload duration     : 192 ms



cast
Annie Abbott                     : Tour Guide
Senyo Amoaku                     : Liquor Store Robber
David Anders                     : Bart
Anne Arles                       : Ms. Rahmanov                


plot
In Los Angeles, a fallen soldier who has joined the ranks of the living dead
reunites with his best friend in order to deal with the city's drug dealers
and killers - a perfect way to collect the blood that one of them so desperately
needs.  


note

Enjoy

Dont forget to thank the uploader


Greets to:

BBnRG | BHRG | Tinners | Hibees | Mr Meyagi |        
chris25867 | Zia | RDX | TDP | FLAWL3SS |  ELEKTRI4KA    
Tater44 | StevieL | Smelly | rosco385 | Toon | Merwais

All the people that make p2p what it is...THANKS